<?xml version="1.0" encoding="iso-8859-1"?>
<!-- Uploaded to: SVG Repo, www.svgrepo.com, Generator: SVG Repo Mixer Tools -->
<svg height="800px" width="800px" version="1.1" id="Layer_1" xmlns="http://www.w3.org/2000/svg" xmlns:xlink="http://www.w3.org/1999/xlink" 
	 viewBox="0 0 512.284 512.284" xml:space="preserve">
<g transform="translate(1)">
	<path style="fill:#FFDD09;" d="M500.476,182.613c-7.68-27.307-34.987-42.667-62.293-35.84L318.716,179.2
		c-3.413,0.853-5.12-3.413-2.56-5.12c22.187-18.773,35.84-48.64,32.427-80.213c-5.12-46.933-43.52-83.627-90.453-85.333
		c-1.707,0-2.56,0-3.413,0s-2.56,0-3.413,0c-46.08,1.707-85.333,38.4-89.6,84.48c-3.413,32.427,10.24,61.44,32.427,80.213
		c2.56,2.56,0.853,5.973-2.56,5.12L72.102,145.92c-27.307-6.827-55.467,8.533-62.293,35.84s8.533,54.613,35.84,61.44l93.013,29.867
		c11.947,3.413,17.92,17.067,11.093,27.307l-76.8,126.293c-14.507,24.747-5.973,56.32,18.773,69.973
		c23.893,13.653,55.467,5.973,69.973-17.92l62.293-104.107c6.827-11.093,18.773-17.067,30.72-16.213
		c11.947,0,23.893,5.12,30.72,16.213l63.147,104.107c14.507,23.893,45.227,31.573,69.12,17.92
		c24.747-13.653,33.28-45.227,18.773-69.12l-76.8-126.293c-5.973-10.24-0.853-23.893,11.093-27.307l93.013-29.867
		C491.942,237.227,508.156,209.067,500.476,182.613"/>
	<g>
		<path style="fill:#FFFFFF;" d="M8.956,182.613c7.68-27.307,34.987-42.667,62.293-35.84L190.716,179.2
			c3.413,0.853,5.12-3.413,2.56-5.12c-22.187-18.773-35.84-48.64-32.427-80.213c4.267-46.08,43.52-82.773,89.6-84.48
			c1.707,0,2.56,0,3.413,0c0.853,0,2.56,0,3.413,0c13.653,0.853,25.6,4.267,37.547,9.387c-2.56-0.853-6.827-1.707-11.093-1.707
			c-1.707,0-2.56,0-3.413,0c-0.853,0-2.56,0-3.413,0c-46.08,1.707-85.333,38.4-89.6,84.48c-1.707,21.333,2.56,40.96,12.8,57.173
			c5.973,10.24-3.413,23.04-15.36,19.627l-87.04-23.893c-27.307-6.827-55.467,8.533-62.293,35.84
			c-6.827,24.747,6.827,50.347,29.867,59.733l-19.627-5.973C17.489,237.227,1.276,209.067,8.956,182.613"/>
		<path style="fill:#FFFFFF;" d="M149.756,301.227c5.973-10.24,1.707-22.187-9.387-26.453l23.893,7.68
			c11.947,3.413,17.067,17.067,11.093,27.307l-76.8,126.293c-14.507,23.04-6.827,52.907,15.36,67.413
			c-7.68,0-15.36-2.56-23.04-6.827c-23.893-13.653-32.427-45.227-17.92-69.12L149.756,301.227z"/>
	</g>
	<g>
		<path style="fill:#FD9808;" d="M500.476,182.613c-7.68-27.307-34.987-42.667-62.293-35.84L318.716,179.2
			c-3.413,0.853-5.12-3.413-2.56-5.12c22.187-18.773,35.84-48.64,32.427-80.213c-5.12-46.933-43.52-83.627-90.453-85.333
			c-1.707,0-2.56,0-3.413,0s-2.56,0-3.413,0c-13.653,0.853-25.6,4.267-37.547,9.387c3.413,0,7.68-0.853,11.947-0.853
			c1.707,0,2.56,0,3.413,0c0.853,0,2.56,0,3.413,0c46.08,1.707,85.333,38.4,89.6,84.48c1.707,21.333-2.56,40.96-12.8,57.173
			c-5.973,10.24,3.413,23.04,15.36,19.627l87.04-23.893c27.307-6.827,55.467,8.533,62.293,35.84
			c6.827,24.747-6.827,50.347-29.867,59.733l19.627-5.973C491.942,237.227,508.156,209.067,500.476,182.613"/>
		<path style="fill:#FD9808;" d="M359.676,301.227c-5.973-10.24-1.707-22.187,9.387-26.453l-23.893,7.68
			c-11.947,3.413-17.067,17.067-11.093,27.307l76.8,126.293c14.507,23.04,6.827,52.907-15.36,67.413c7.68,0,15.36-2.56,23.04-6.827
			c24.747-13.653,33.28-45.227,18.773-69.12L359.676,301.227z"/>
	</g>
	<g>
		<path style="fill:#FFDD09;" d="M344.316,170.667c-3.413,0.853-5.12-3.413-2.56-5.12c22.187-18.773,35.84-48.64,32.427-80.213
			C369.062,38.4,330.662,1.707,283.729,0c-1.707,0-2.56,0-3.413,0c-0.853,0-2.56,0-3.413,0c-13.653,0.853-25.6,4.267-37.547,9.387
			c3.413,0,7.68-0.853,11.947-0.853c1.707,0,2.56,0,3.413,0s2.56,0,3.413,0c46.08,1.707,85.333,38.4,89.6,84.48
			c3.413,32.427-10.24,61.44-32.427,80.213c-2.56,2.56-0.853,5.973,2.56,5.12"/>
		<path style="fill:#FFDD09;" d="M385.276,292.693c-5.973-10.24-1.707-22.187,9.387-26.453l-23.893,7.68
			c-11.947,3.413-17.067,17.067-11.093,27.307l76.8,126.293c14.507,23.04,6.827,52.907-15.36,67.413c7.68,0,15.36-2.56,23.04-6.827
			c24.747-13.653,33.28-45.227,18.773-69.12L385.276,292.693z"/>
	</g>
	<g>
		<path style="fill:#1CD759;" d="M286.289,102.4h5.12c7.68,0,14.507-6.827,14.507-14.507v-5.12c0-7.68-6.827-14.507-14.507-14.507
			h-5.12c-7.68,0-14.507,6.827-14.507,14.507v5.12C271.782,96.427,278.609,102.4,286.289,102.4"/>
		<path style="fill:#1CD759;" d="M218.022,102.4h5.12c7.68,0,14.507-6.827,14.507-14.507v-5.12c0-7.68-6.827-14.507-14.507-14.507
			h-5.12c-7.68,0-14.507,6.827-14.507,14.507v5.12C203.516,96.427,210.342,102.4,218.022,102.4"/>
	</g>
	<g>
		<path style="fill:#54C9FD;" d="M271.782,310.613c0,7.68-6.827,13.653-14.507,13.653h-5.12c-7.68,0-14.507-5.973-14.507-13.653
			v-5.12c0-7.68,6.827-15.36,14.507-15.36h5.12c7.68,0,14.507,6.827,14.507,15.36V310.613z"/>
		<path style="fill:#54C9FD;" d="M271.782,242.347c0,7.68-6.827,13.653-14.507,13.653h-5.12c-7.68,0-14.507-5.973-14.507-13.653
			v-5.12c0-7.68,6.827-15.36,14.507-15.36h5.12c7.68,0,14.507,6.827,14.507,15.36V242.347z"/>
	</g>
	<path d="M254.716,162.133c-15.36,0-29.867-6.827-40.96-20.48c-3.413-3.413-2.56-9.387,0.853-11.947
		c3.413-3.413,9.387-2.56,11.947,0.853c7.68,9.387,17.067,13.653,27.307,13.653c10.24,0,20.48-5.12,27.307-13.653
		c3.413-3.413,8.533-4.267,11.947-0.853c3.413,3.413,4.267,8.533,0.853,11.947C284.582,155.307,270.076,162.133,254.716,162.133z"/>
	<path d="M291.409,110.933h-5.12c-12.8,0-23.04-10.24-23.04-23.04v-5.12c0-12.8,10.24-23.04,23.04-23.04h5.12
		c12.8,0,23.04,10.24,23.04,23.04v5.12C314.449,100.693,304.209,110.933,291.409,110.933z M286.289,76.8
		c-3.413,0-5.973,2.56-5.973,5.973v5.12c0,3.413,2.56,5.973,5.973,5.973h5.12c3.413,0,5.973-2.56,5.973-5.973v-5.12
		c0-3.413-2.56-5.973-5.973-5.973H286.289z"/>
	<path d="M223.142,110.933h-5.12c-12.8,0-23.04-10.24-23.04-23.04v-5.12c0-12.8,10.24-23.04,23.04-23.04h5.12
		c12.8,0,23.04,10.24,23.04,23.04v5.12C246.182,100.693,235.942,110.933,223.142,110.933z M218.022,76.8
		c-3.413,0-5.973,2.56-5.973,5.973v5.12c0,3.413,2.56,5.973,5.973,5.973h5.12c3.413,0,5.973-2.56,5.973-5.973v-5.12
		c0-3.413-2.56-5.973-5.973-5.973H218.022z"/>
	<path d="M257.276,332.8h-5.12c-12.8,0-23.04-10.24-23.04-22.187v-5.12c0-12.8,10.24-23.893,23.04-23.893h5.12
		c12.8,0,23.04,11.093,23.04,23.893v5.12C280.316,322.56,270.076,332.8,257.276,332.8z M252.156,298.667
		c-3.413,0-5.973,3.413-5.973,6.827v5.12c0,3.413,2.56,5.12,5.973,5.12h5.12c3.413,0,5.973-2.56,5.973-5.12v-5.12
		c0-3.413-2.56-6.827-5.973-6.827H252.156z"/>
	<path d="M257.276,264.533h-5.12c-12.8,0-23.04-10.24-23.04-22.187v-5.12c0-12.8,10.24-23.893,23.04-23.893h5.12
		c12.8,0,23.04,11.093,23.04,23.893v5.12C280.316,254.293,270.076,264.533,257.276,264.533z M252.156,230.4
		c-3.413,0-5.973,3.413-5.973,6.827v5.12c0,3.413,2.56,5.12,5.973,5.12h5.12c3.413,0,5.973-2.56,5.973-5.12v-5.12
		c0-3.413-2.56-6.827-5.973-6.827H252.156z"/>
	<path d="M438.182,261.12c-1.707,0-3.413-0.853-5.12-1.707c-2.56-1.707-3.413-4.267-3.413-6.827c0-4.267,0.853-8.533,4.267-11.947
		l4.267-4.267l-5.973-0.853c-5.973-0.853-11.093-4.267-12.8-10.24c-1.707-5.973-0.853-11.947,3.413-16.213l4.267-4.267l-5.973-0.853
		c-5.973-0.853-11.093-5.12-12.8-10.24c-1.707-5.973-0.853-11.947,3.413-16.213l4.267-4.267l-8.533-0.853
		c-6.827-0.853-12.8-5.973-13.653-13.653c-0.853-4.267,1.707-8.533,5.973-9.387l35.84-9.387
		c31.573-8.533,64.853,10.24,73.387,41.813c4.267,15.36,1.707,30.72-5.973,44.373c-7.68,13.653-21.333,23.893-36.693,28.16
		l-25.6,8.533C439.889,261.12,439.036,261.12,438.182,261.12z M436.476,219.307l5.973,0.853c5.973,0.853,11.093,4.267,12.8,10.24
		c0.853,2.56,0.853,5.12,0.853,7.68l5.12-1.707c11.947-3.413,20.48-10.24,26.453-19.627c5.12-9.387,6.827-20.48,4.267-31.573l0,0
		c-5.973-22.187-29.867-35.84-52.053-29.867l-12.8,3.413c2.56,1.707,4.267,4.267,5.973,7.68c1.707,5.973,0.853,11.947-3.413,16.213
		l-4.267,4.267l5.973,0.853c5.973,0.853,11.093,4.267,12.8,10.24c1.707,5.973,0.853,11.947-3.413,16.213L436.476,219.307z"/>
	<path d="M392.102,512c-20.48,0-40.107-10.24-51.2-29.013L278.609,378.88c-5.12-7.68-13.653-11.947-23.893-11.947
		s-18.773,4.267-23.893,12.8L168.529,483.84c-17.067,27.307-52.907,36.693-81.067,20.48c-13.653-7.68-23.893-21.333-28.16-36.693
		c-4.267-15.36-1.707-31.573,6.827-45.227l76.8-126.293c1.707-2.56,1.707-5.973,0.853-8.533c-0.853-2.56-3.413-5.12-6.827-5.973
		l-93.867-29.867c-15.36-4.267-28.16-13.653-35.84-27.307c-7.68-13.653-10.24-29.013-5.973-44.373
		c8.533-31.573,40.96-50.347,73.387-41.813l100.693,27.307c-16.213-20.48-23.893-46.933-21.333-73.387
		c3.413-50.347,46.08-89.6,96.427-92.16c0.853,0,1.707,0,2.56,0h1.707h0.853c0.853,0,1.707,0,2.56,0
		c51.2,1.707,93.013,41.813,98.133,92.16c2.56,26.453-5.12,52.907-21.333,73.387l100.693-27.307
		c31.573-8.533,64.853,10.24,73.387,41.813l0,0c4.267,15.36,1.707,30.72-5.973,44.373c-7.68,13.653-21.333,23.893-36.693,28.16
		l-93.013,29.867c-3.413,0.853-5.973,3.413-6.827,5.973c-0.853,2.56-0.853,5.973,0.853,8.533l76.8,126.293
		c8.533,13.653,10.24,29.867,6.827,45.227c-4.267,15.36-13.653,28.16-28.16,36.693C412.582,509.44,402.342,512,392.102,512z
		 M256.422,349.867c14.507,0,28.16,7.68,36.693,20.48l62.293,104.107c11.947,19.627,37.547,26.453,58.027,14.507
		c10.24-5.973,17.067-14.507,19.627-25.6s0.853-22.187-4.267-31.573l-76.8-126.293c-4.267-6.827-4.267-15.36-1.707-23.893
		c3.413-7.68,10.24-13.653,17.92-16.213l93.013-29.867c11.947-3.413,20.48-10.24,26.453-19.627c5.12-9.387,6.827-20.48,4.267-31.573
		l0,0c-5.973-22.187-29.867-35.84-52.053-29.867L320.422,186.88c-5.12,1.707-11.093-0.853-13.653-5.973
		c-2.56-5.12-1.707-11.093,2.56-14.507c21.333-17.92,32.427-45.227,29.867-73.387c-4.267-41.813-40.107-75.093-81.067-76.8
		c-0.853,0-0.853,0-1.707,0l-1.707,0.853h-1.707c-0.853,0-0.853,0-1.707,0c-41.813,1.707-77.653,34.987-81.067,76.8
		c-2.56,28.16,7.68,54.613,29.013,73.387c4.267,3.413,5.12,9.387,2.56,14.507c-2.56,5.12-7.68,6.827-13.653,5.973L68.689,155.307
		c-23.04-5.973-46.08,7.68-52.053,29.867c-2.56,11.093-1.707,22.187,4.267,31.573c5.973,10.24,15.36,17.067,26.453,19.627
		l93.867,29.867c7.68,1.707,14.507,7.68,17.92,16.213c3.413,7.68,2.56,16.213-1.707,23.893l-76.8,126.293
		c-5.973,8.533-7.68,19.627-5.12,30.72c2.56,11.093,10.24,20.48,19.627,25.6c20.48,11.093,46.08,5.12,58.027-14.507l62.293-104.107
		c8.533-13.653,23.04-21.333,38.4-20.48C255.569,349.867,256.422,349.867,256.422,349.867z"/>
	<path d="M71.249,261.12c-0.853,0-1.707,0-2.56,0l-25.6-8.533c-15.36-4.267-28.16-13.653-35.84-27.307s-10.24-29.013-5.973-44.373
		c8.533-31.573,40.96-50.347,73.387-41.813l35.84,9.387c4.267,0.853,6.827,5.12,5.973,9.387c-0.853,6.827-6.827,12.8-13.653,13.653
		l-8.533,0.853l4.267,4.267c4.267,4.267,5.12,10.24,3.413,16.213c-1.707,5.973-6.827,9.387-12.8,10.24l-6.827,1.707l4.267,4.267
		c4.267,4.267,5.12,10.24,3.413,16.213c-1.707,5.973-6.827,9.387-12.8,10.24l-5.973,0.853l4.267,5.12
		c3.413,3.413,4.267,7.68,4.267,11.947c0,2.56-1.707,5.12-3.413,6.827C74.662,260.267,72.956,261.12,71.249,261.12z M58.449,153.6
		c-18.773,0-35.84,11.947-40.96,30.72l0,0c-2.56,11.093-1.707,22.187,4.267,31.573c5.973,10.24,14.507,17.067,26.453,19.627
		l5.12,1.707c0-2.56,0-5.12,0.853-7.68c1.707-5.973,6.827-9.387,12.8-10.24l5.973-0.853l-4.267-4.267
		c-4.267-4.267-5.12-10.24-3.413-16.213c1.707-5.973,6.827-9.387,12.8-10.24l5.973-0.853l-4.267-4.267
		c-4.267-4.267-5.12-10.24-3.413-16.213c0.853-3.413,3.413-5.973,5.973-7.68l-12.8-3.413C66.129,154.453,61.862,153.6,58.449,153.6z
		 M8.956,182.613L8.956,182.613L8.956,182.613z"/>
	<path d="M392.102,512c-20.48,0-40.107-10.24-51.2-28.16l-14.507-24.747c-0.853-1.707-1.707-3.413-0.853-5.12l-0.853-8.533
		c0-5.973,2.56-11.947,7.68-14.507c5.12-3.413,11.947-2.56,17.067,0.853l5.12,3.413v-5.973c0-5.973,2.56-11.947,7.68-14.507
		c5.12-3.413,11.947-2.56,17.067,0.853l5.12,3.413v-5.973c0-5.973,2.56-11.947,7.68-14.507c5.12-3.413,11.947-2.56,17.067,0.853
		l7.68,5.12c1.707-2.56,4.267-3.413,6.827-4.267c3.413,0,5.973,1.707,7.68,4.267l12.8,20.48c8.533,13.653,10.24,29.867,6.827,45.227
		c-4.267,15.36-13.653,28.16-28.16,36.693C412.582,509.44,402.342,512,392.102,512z M341.756,452.267l13.653,22.187
		c11.947,19.627,37.547,26.453,58.027,14.507c10.24-5.973,17.067-14.507,19.627-25.6s0.853-22.187-4.267-31.573l-7.68-12.8
		c-4.267,1.707-9.387,0.853-12.8-1.707l-6.827-4.267v5.973c0,5.973-2.56,11.947-7.68,14.507c-5.12,3.413-11.947,2.56-17.067-0.853
		l-5.12-3.413v5.973c0,5.973-2.56,11.947-7.68,14.507s-11.947,2.56-17.067-0.853l-5.12-3.413L341.756,452.267z M415.996,403.627
		L415.996,403.627L415.996,403.627z"/>
	<path d="M117.329,512c-10.24,0-20.48-2.56-29.867-7.68c-13.653-7.68-23.893-21.333-28.16-36.693s-1.707-31.573,6.827-45.227
		l12.8-20.48c1.707-2.56,5.12-4.267,7.68-4.267s5.12,1.707,6.827,4.267l7.68-5.12c5.12-3.413,11.093-3.413,17.067-0.853
		c5.12,3.413,8.533,8.533,7.68,14.507v5.973l5.12-3.413c5.12-3.413,11.093-3.413,17.067-0.853c5.12,3.413,8.533,8.533,7.68,14.507
		v5.973l5.12-3.413c5.12-3.413,11.093-3.413,17.067-0.853s8.533,8.533,7.68,14.507l-0.853,8.533c0,1.707,0,4.267-0.853,5.973
		l-14.507,24.747C157.436,501.76,136.956,512,117.329,512z M88.316,418.987l-7.68,12.8c-5.973,9.387-7.68,20.48-5.12,31.573
		c2.56,11.093,10.24,20.48,19.627,25.6c20.48,11.093,46.08,5.12,58.027-14.507l13.653-22.187v-5.973l-5.12,3.413
		c-5.12,3.413-11.093,3.413-17.067,0.853c-5.12-3.413-8.533-8.533-7.68-14.507v-5.973l-5.12,3.413
		c-5.12,3.413-11.093,3.413-17.067,0.853c-5.12-3.413-8.533-8.533-7.68-14.507v-5.973l-5.973,3.413
		C97.702,419.84,92.582,420.693,88.316,418.987z M175.356,453.12L175.356,453.12L175.356,453.12z M93.436,403.627L93.436,403.627
		L93.436,403.627z"/>
</g>
</svg>